<svg version="1.1" xmlns="http://www.w3.org/2000/svg" xmlns:xlink="http://www.w3.org/1999/xlink">
    <symbol id="arrowDown" viewBox="0 0 9 5">
        <path d="M4.52472 4.92108C4.37777 4.9251 4.23394 4.87278 4.1182 4.77322L0.257889 1.43349C0.126507 1.32012 0.0415094 1.1546 0.0215957 0.97333C0.00168203 0.792062 0.0484833 0.6099 0.151704 0.466916C0.254924 0.323933 0.406108 0.231841 0.571997 0.210899C0.737887 0.189958 0.904892 0.241882 1.03627 0.35525L4.48505 3.3479L7.78141 0.295174C7.84431 0.236488 7.91726 0.192007 7.99607 0.164289C8.07489 0.136571 8.15801 0.126162 8.24066 0.13366C8.32331 0.141158 8.40386 0.166415 8.47769 0.20798C8.55151 0.249546 8.61715 0.306599 8.67083 0.375861C8.73021 0.445045 8.77593 0.526812 8.80511 0.616041C8.83429 0.705269 8.84631 0.800036 8.84042 0.894403C8.83453 0.988771 8.81085 1.08071 8.77087 1.16445C8.73088 1.24819 8.67546 1.32194 8.60807 1.38107L4.91801 4.7943C4.80378 4.88346 4.6653 4.9281 4.52472 4.92108Z"/>
    </symbol>

    <symbol id="repost" viewBox="0 0 13 12">
        <path d="M13 6.00753L7.59745 0.528381V3.79734H6.44882C2.88719 3.79734 0 6.46766 0 9.76175V11.4941L0.510193 10.977C2.24479 9.21925 4.69915 8.21772 7.27233 8.21772H7.59745V11.4867L13 6.00753Z"/>
        <path fill-rule="evenodd" clip-rule="evenodd" d="M13 6.00753L7.59745 0.528381V3.79734H6.44882C2.88719 3.79734 0 6.46766 0 9.76175V11.4941L0.510193 10.977C2.24479 9.21925 4.69915 8.21772 7.27233 8.21772H7.59745V11.4867L13 6.00753Z" />
    </symbol>


    <symbol id="like" viewBox="0 0 26 24">
        <path d="M12.3243 22.3778L12.324 22.3776C11.2717 21.4574 10.2574 20.5929 9.3646 19.8322C9.36398 19.8316 9.36336 19.8311 9.36274 19.8306L9.36198 19.8299L9.36199 19.8298L9.35819 19.8266C6.72751 17.5848 4.50382 15.6876 2.9637 13.8293C1.25937 11.7727 0.5 9.86898 0.5 7.81377C0.5 5.79086 1.19315 3.9445 2.43019 2.60266C3.68023 1.24686 5.39313 0.5 7.26329 0.5C8.65111 0.5 9.91843 0.936325 11.0425 1.80566C11.6124 2.2465 12.133 2.78918 12.5948 3.42774L12.9999 3.9879L13.4051 3.42782C13.8671 2.78915 14.3876 2.24648 14.9576 1.8057L14.9576 1.80568C16.0817 0.936335 17.349 0.5 18.7369 0.5C20.6068 0.5 22.3199 1.24687 23.57 2.60266C24.807 3.94447 25.4999 5.79084 25.4999 7.81377C25.4999 9.86902 24.7408 11.7727 23.0364 13.8291L23.0364 13.8291C21.4964 15.6875 19.273 17.5844 16.6429 19.8259C15.748 20.5883 14.7312 21.455 13.6757 22.378L13.6756 22.3781C13.489 22.5414 13.249 22.6317 13 22.6317C12.7509 22.6317 12.5111 22.5415 12.3243 22.3778Z" />
    </symbol>

    <symbol id="arrow" viewBox="0 0 12 8">
        <path d="M0.180798 0.809424C0.399948 0.58588 0.742881 0.565557 0.984536 0.748458L1.05377 0.809424L6 5.85506L10.9462 0.809424C11.1654 0.58588 11.5083 0.565557 11.75 0.748458L11.8192 0.809424C12.0384 1.03297 12.0583 1.38278 11.879 1.62928L11.8192 1.6999L6.43649 7.19058C6.21734 7.41412 5.8744 7.43444 5.63275 7.25154L5.56351 7.19058L0.180798 1.6999C-0.0602661 1.454 -0.0602661 1.05532 0.180798 0.809424Z" />
    </symbol>

    <symbol id="account" viewBox="0 0 26 26">
        <path fill-rule="evenodd" clip-rule="evenodd" d="M10.3465 0.499756C6.6596 0.499756 3.69901 3.45989 3.69901 7.14726C3.69901 10.8338 6.66 13.7948 10.3465 13.7948C14.0339 13.7948 16.994 10.8342 16.994 7.14726C16.994 3.45949 14.0343 0.499756 10.3465 0.499756ZM10.3465 2.37476C12.9987 2.37476 15.119 4.49502 15.119 7.14726C15.119 9.7987 12.9983 11.9198 10.3465 11.9198C7.69553 11.9198 5.57401 9.79824 5.57401 7.14726C5.57401 4.49549 7.69507 2.37476 10.3465 2.37476ZM10.3466 16.0701C4.0591 16.0701 0.500366 17.2632 0.500366 20.6439C0.500366 24.0283 4.0749 25.2439 10.3466 25.2439L11.151 25.237C16.9354 25.1359 20.1929 23.903 20.1929 20.6701C20.1929 17.3593 16.7721 16.124 10.7518 16.0719L10.3466 16.0701ZM10.3466 17.9451C15.5984 17.9451 18.3179 18.8699 18.3179 20.6701C18.3179 22.4592 15.6051 23.3689 10.3466 23.3689C5.09478 23.3689 2.37537 22.4441 2.37537 20.6439C2.37537 18.9025 4.94207 17.9949 9.92572 17.9471L10.3466 17.9451ZM22.0048 7.89875C22.4795 7.89875 22.8717 8.25145 22.9338 8.70904L22.9423 8.83625V10.4049H24.5625C25.0803 10.4049 25.5 10.8246 25.5 11.3424C25.5 11.817 25.1473 12.2092 24.6897 12.2713L24.5625 12.2799H22.9423V13.8488C22.9423 14.3665 22.5226 14.7863 22.0048 14.7863C21.5302 14.7863 21.138 14.4336 21.0759 13.976L21.0673 13.8488V12.2799H19.45C18.9322 12.2799 18.5125 11.8601 18.5125 11.3424C18.5125 10.8678 18.8652 10.4755 19.3228 10.4134L19.45 10.4049H21.0673V8.83625C21.0673 8.31849 21.4871 7.89875 22.0048 7.89875Z" />
    </symbol>

    <symbol id="cart" viewBox="0 0 26 25">
        <path fill-rule="evenodd" clip-rule="evenodd" d="M1.59729 0.138643L1.47048 0.125381C1.009 0.108511 0.594585 0.43486 0.513643 0.902526L0.500381 1.02934C0.483511 1.49081 0.80986 1.90523 1.27753 1.98618L3.16378 2.31241L4.30694 15.9321L4.3306 16.1368C4.5606 17.6898 5.89641 18.8574 7.48741 18.8574H21.1274L21.3328 18.8509C22.8282 18.7554 24.0682 17.6245 24.2864 16.1222L25.4727 7.92417L25.4932 7.73587C25.6024 6.23702 24.415 4.93616 22.8862 4.93616H5.26503L4.97162 1.43399L4.94951 1.29543C4.86396 0.935025 4.57098 0.653319 4.19729 0.588643L1.59729 0.138643ZM7.34231 16.9745C6.72322 16.9067 6.22811 16.4096 6.17523 15.7757L5.42235 6.81116H22.886L22.9962 6.81926C23.3909 6.87794 23.676 7.24703 23.6169 7.65572L22.4306 15.8531L22.4009 15.9997C22.2504 16.5729 21.7311 16.9824 21.1272 16.9824H7.48723L7.34231 16.9745ZM5.38533 22.7315C5.38533 21.6864 6.23242 20.8378 7.27783 20.8378C8.3231 20.8378 9.17158 21.6863 9.17158 22.7315C9.17158 23.7769 8.32296 24.624 7.27783 24.624C6.23256 24.624 5.38533 23.7768 5.38533 22.7315ZM19.4497 22.7315C19.4497 21.6863 20.2982 20.8378 21.3435 20.8378C22.3887 20.8378 23.2372 21.6863 23.2372 22.7315C23.2372 23.7769 22.3886 24.624 21.3435 24.624C20.2983 24.624 19.4497 23.7769 19.4497 22.7315ZM20.0604 10.4937C20.0604 9.97589 19.6406 9.55615 19.1229 9.55615H15.6566L15.5294 9.56471C15.0718 9.62679 14.7191 10.019 14.7191 10.4937C14.7191 11.0114 15.1389 11.4312 15.6566 11.4312H19.1229L19.2501 11.4226C19.7077 11.3605 20.0604 10.9683 20.0604 10.4937Z" />
    </symbol>


    <symbol id="location" viewBox="0 0 22 26">
        <path fill-rule="evenodd" clip-rule="evenodd" d="M11.036 0.500062C5.27471 0.48049 0.56887 5.06419 0.380785 10.8017L0.375 11.1578C0.470761 13.9701 1.42759 16.6509 3.11285 18.8595L3.50865 19.376C5.11725 21.4214 7.02889 23.2167 9.17534 24.6964L9.69214 25.0443L9.76756 25.1035C10.5032 25.6321 11.4966 25.6321 12.2323 25.1035L12.295 25.0519C13.9982 23.9474 15.5688 22.6495 16.9756 21.1841C19.8358 18.1565 21.5596 14.7641 21.6247 11.3187L21.6249 11.1908C21.6444 5.4149 17.0748 0.694588 11.3549 0.505863L11.036 0.500062ZM11.0298 2.39684C15.753 2.41299 19.5877 6.18678 19.7301 10.8864L19.7342 11.3008C19.6794 14.1893 18.167 17.1656 15.6085 19.8739C14.3039 21.2328 12.8412 22.4407 11.2547 23.4681L11.1489 23.5476C11.0635 23.6217 10.9368 23.6217 10.8513 23.5476L10.7486 23.47C8.38519 21.927 6.31094 19.9788 4.62068 17.7147C3.2592 15.9303 2.45242 13.7968 2.29003 11.5711L2.26617 11.1248C2.28221 6.39028 6.04438 2.54374 10.7295 2.4009L11.0298 2.39684ZM10.9999 7.25162C8.76441 7.25162 6.95218 9.06944 6.95218 11.3118C6.95218 13.5542 8.76441 15.372 10.9999 15.372C13.2354 15.372 15.0476 13.5542 15.0476 11.3118C15.0476 9.06944 13.2354 7.25162 10.9999 7.25162ZM11.0001 9.14839C12.1913 9.14839 13.1569 10.117 13.1569 11.3118C13.1569 12.5066 12.1913 13.4752 11.0001 13.4752C9.80898 13.4752 8.84336 12.5066 8.84336 11.3118C8.84336 10.117 9.80898 9.14839 11.0001 9.14839Z" />
    </symbol>

    <symbol id="search" viewBox="0 0 26 26">
        <path fill-rule="evenodd" clip-rule="evenodd" d="M12.5144 0.5C5.87904 0.5 0.5 5.76024 0.5 12.2491C0.5 18.7379 5.87904 23.9982 12.5144 23.9982C15.3523 23.9982 17.9604 23.0359 20.0162 21.4269L23.9212 25.2358L24.0251 25.3233C24.3877 25.5857 24.9017 25.5558 25.2297 25.2341C25.5906 24.8803 25.5898 24.3074 25.228 23.9545L21.3689 20.1904C23.3312 18.0993 24.5289 15.311 24.5289 12.2491C24.5289 5.76024 19.1498 0.5 12.5144 0.5ZM12.5144 2.30968C18.1278 2.30968 22.6783 6.7597 22.6783 12.2491C22.6783 17.7385 18.1278 22.1885 12.5144 22.1885C6.90108 22.1885 2.35055 17.7385 2.35055 12.2491C2.35055 6.7597 6.90108 2.30968 12.5144 2.30968Z"/>
    </symbol>

    <symbol id="logo" viewBox="0 0 64 60" >
        <path fill-rule="evenodd" clip-rule="evenodd" d="M7.19051 0.892308V0H8.08281H23.2995C23.3293 4.78478 27.0732 8.65403 31.6872 8.65403C36.3013 8.65403 40.0452 4.78478 40.075 0H55.2924H56.1847V0.892308V16.2693H55.2924V0.892308H40.9225C40.4626 5.72476 36.5307 9.54634 31.6872 9.54634C26.8438 9.54634 22.9119 5.72476 22.452 0.892308H8.08281V16.2693H7.19051V0.892308ZM55.2924 43.7308H56.1847V59.1077V60H55.2924H40.7451H39.8528L39.8529 59.9425L39.8528 59.8852C39.8235 55.1003 36.1291 51.231 31.5761 51.231C27.0233 51.231 23.329 55.1001 23.2995 59.8849L23.2993 59.9425L23.2995 60H22.4072H8.08281H7.19051V59.1077V43.7308H8.08281V59.1077H22.4414C22.8441 54.2303 26.7425 50.3386 31.5761 50.3386C36.4098 50.3386 40.3081 54.2303 40.7109 59.1077H55.2924V43.7308ZM58.8396 29.9305L60.6026 29.9051L59.6859 28.0907L58.8396 29.9305ZM63.9152 32.0421L61.6953 32.074L61.2699 31.2234L58.2364 31.267L57.841 32.1294L55.7853 32.159L58.3409 26.8107L61.0675 26.7715L63.9152 32.0421ZM52.9887 32.1992L55.6297 32.1612L52.4003 29.3091L55.4587 26.8521L52.9391 26.8883L50.3547 29.0244L50.3266 26.9259L48.2995 26.955L48.3706 32.2656L50.3977 32.2364L50.3659 29.8595L52.9887 32.1992ZM39.5713 33.3201L39.5399 30.9789L40.2394 30.9689C40.5385 30.3792 40.5898 29.4075 40.5584 27.0663L46.7326 26.9775L46.7847 30.8748L47.6413 30.8625L47.6726 33.2037L45.7668 33.2311L45.7544 32.3032L41.4646 32.3648L41.4771 33.2927L39.5713 33.3201ZM42.4046 28.4533C42.4189 29.5168 42.3391 30.4889 42.1167 30.9419L44.7576 30.9039L44.7244 28.42L42.4046 28.4533ZM34.9993 27.0462C31.5589 27.0957 31.1454 28.7365 31.1588 29.7358L31.1617 29.95C31.1749 30.9421 31.6327 32.6061 35.0731 32.5566L35.3943 32.552C38.8275 32.5027 39.2406 30.8262 39.2273 29.834L39.2244 29.6199C39.2111 28.6206 38.7466 26.9924 35.3205 27.0416L34.9993 27.0462ZM37.1279 29.7999C37.1356 30.371 36.7812 31.0971 35.2109 31.1197C33.6406 31.1423 33.2666 30.398 33.2591 29.8413L33.258 29.7556C33.2504 29.1917 33.5766 28.4945 35.1755 28.4716C36.7458 28.449 37.1191 29.1361 37.1266 29.7L37.1279 29.7999ZM27.4385 30.903L25.9904 32.5873L23.5493 32.6223L25.9468 29.8607L23.5567 27.3107L26.1477 27.2734L27.5177 28.8172L28.8529 27.2345L31.2583 27.2L28.9943 29.7955L31.4365 32.509L28.9454 32.5448L27.4385 30.903ZM19.557 27.2682C16.1166 27.3177 15.7031 28.9585 15.7165 29.9578L15.7194 30.1719C15.7326 31.1641 16.1904 32.8281 19.6308 32.7786L19.952 32.774C23.3852 32.7247 23.7983 31.0481 23.785 30.056L23.7821 29.8419C23.7688 28.8426 23.3043 27.2144 19.8782 27.2636L19.557 27.2682ZM21.6856 30.0219C21.6933 30.5929 21.3389 31.3191 19.7686 31.3417C18.1983 31.3642 17.8243 30.62 17.8168 30.0632L17.8157 29.9776C17.8081 29.4137 18.1343 28.7165 19.7332 28.6935C21.3035 28.671 21.6768 29.3581 21.6843 29.922L21.6856 30.0219ZM15.1134 29.3025C15.1263 30.2661 14.559 31.0881 12.6176 31.116L10.2193 31.1505L10.2416 32.8136L8.21444 32.8428L8.14336 27.5322L12.5688 27.4686C14.5316 27.4404 15.0988 28.2104 15.1119 29.1883L15.1134 29.3025ZM12.3438 28.7997L10.1882 28.8307L10.2015 29.8229L12.3571 29.7919C12.8211 29.7852 13.0255 29.5895 13.0216 29.2969L13.0213 29.2755C13.0172 28.9685 12.8221 28.7929 12.3438 28.7997ZM2.09819 32.9307L0.0710775 32.9598L0 27.6493L7.12345 27.5469L7.19453 32.8574L5.17455 32.8865L5.12239 28.9892L2.04603 29.0334L2.09819 32.9307Z" />
    </symbol>

    <symbol id="tg" viewBox="0 0 40 33">
        <path d="M2.40005 14.3C2.40005 14.3 19.7 7.20001 25.7 4.70001C28 3.70001 35.8 0.500013 35.8 0.500013C35.8 0.500013 39.4 -0.899987 39.1 2.50001C39 3.90001 38.2 8.80001 37.4 14.1C36.2 21.6 34.9 29.8 34.9 29.8C34.9 29.8 34.7 32.1 33 32.5C31.3 32.9 28.5 31.1 28 30.7C27.6 30.4 20.5 25.9 17.9 23.7C17.2 23.1 16.4 21.9 18 20.5C21.6 17.2 25.9 13.1 28.5 10.5C29.7 9.30001 30.9 6.50001 25.9 9.90001C18.8 14.8 11.8 19.4 11.8 19.4C11.8 19.4 10.2 20.4 7.20005 19.5C4.20005 18.6 0.700047 17.4 0.700047 17.4C0.700047 17.4 -1.69995 15.9 2.40005 14.3Z" />

    </symbol>

    <symbol id="ok" viewBox="0 0 261 450">
        <path d="M130.493 68.637C156.913 68.637 178.403 90.1272 178.403 116.547C178.403 142.944 156.907 164.434 130.493 164.434C104.09 164.434 82.5948 142.944 82.5948 116.547C82.5893 90.1216 104.096 68.637 130.493 68.637ZM130.493 232.217C194.31 232.217 246.208 180.336 246.208 116.547C246.208 52.7244 194.316 0.821289 130.493 0.821289C66.6821 0.821289 14.779 52.7299 14.779 116.547C14.779 180.336 66.6821 232.217 130.493 232.217ZM177.306 326.602C201.111 321.18 223.827 311.774 244.496 298.781C252.105 293.993 257.501 286.379 259.496 277.614C261.492 268.848 259.923 259.649 255.136 252.04C252.769 248.268 249.681 245.001 246.049 242.424C242.418 239.847 238.314 238.011 233.972 237.021C229.63 236.031 225.136 235.907 220.747 236.656C216.357 237.404 212.158 239.011 208.39 241.383C160.984 271.187 99.9697 271.165 52.6028 241.383C48.8352 239.01 44.6365 237.403 40.2472 236.654C35.8578 235.905 31.3639 236.029 27.0225 237.019C22.6811 238.009 18.5775 239.845 14.9465 242.422C11.3155 245 8.22835 248.268 5.86175 252.04C1.07303 259.647 -0.497984 268.845 1.4942 277.61C3.48639 286.376 8.87862 293.991 16.485 298.781C37.1524 311.77 59.8645 321.175 83.6638 326.602L18.9774 391.299C12.6205 397.658 9.0501 406.282 9.05165 415.274C9.05321 424.265 12.6266 432.888 18.9857 439.245C25.3448 445.602 33.9687 449.172 42.9603 449.171C51.9518 449.169 60.5745 445.596 66.9314 439.237L130.482 375.675L194.072 439.242C197.216 442.391 200.95 444.889 205.061 446.593C209.171 448.298 213.577 449.175 218.027 449.175C222.477 449.175 226.883 448.298 230.993 446.593C235.104 444.889 238.838 442.391 241.982 439.242C245.135 436.098 247.637 432.363 249.344 428.251C251.051 424.138 251.93 419.729 251.93 415.276C251.93 410.823 251.051 406.414 249.344 402.302C247.637 398.189 245.135 394.454 241.982 391.31L177.306 326.602Z"/>
    </symbol>


    <symbol id="vk" viewBox="0 0 1584 942">
        <path fill-rule="evenodd" clip-rule="evenodd" d="M1547.43 63.9503C1558.56 26.8216 1547.43 0.831543 1495.45 0.831543H1322.18C1277.62 0.831543 1257.82 24.3464 1246.68 50.3365C1246.68 50.3365 1158.81 265.683 1033.81 404.297C992.97 445.138 975.644 457.515 953.366 457.515C942.228 457.515 926.139 445.139 926.139 408.01V63.9503C926.139 19.3959 913.762 0.831543 876.634 0.831543H604.356C577.129 0.831543 559.802 21.8711 559.802 40.4355C559.802 82.5147 621.683 92.4157 629.109 208.752V463.703C629.109 519.396 619.208 529.297 596.931 529.297C538.762 529.297 395.198 313.95 311.04 66.4256C293.713 20.6336 277.624 0.831543 233.069 0.831543H59.8019C10.297 0.831543 0.395996 24.3464 0.395996 50.3365C0.395996 96.1286 58.5643 323.851 273.911 624.594C417.475 830.039 619.208 941.426 802.376 941.426C912.525 941.426 926.139 916.673 926.139 874.594V718.653C926.139 669.148 936.04 659.247 971.931 659.247C997.921 659.247 1041.24 671.624 1143.96 770.633C1261.53 888.208 1281.34 941.426 1346.93 941.426H1520.2C1569.7 941.426 1594.46 916.673 1579.6 868.406C1563.51 820.139 1507.82 749.594 1433.56 665.435C1392.72 617.168 1332.08 566.426 1314.75 540.435C1288.76 507.02 1296.19 492.168 1314.75 463.703C1314.75 462.465 1526.39 165.435 1547.43 63.9503Z" />
    </symbol>




</svg>
