<svg xmlns="http://www.w3.org/2000/svg" style="display: none">
  <defs>

    <symbol id="repost">
      <path d="M13 6.00759L7.59745 0.528442V3.7974H6.44882C2.88719 3.7974 0 6.46772 0 9.76181V11.4942L0.510193 10.9771C2.24479 9.21931 4.69915 8.21778 7.27233 8.21778H7.59745V11.4867L13 6.00759Z" fill="currentColor"/>
    </symbol>

    <symbol id="like_unchecked">
      <path d="M13 23.5535C12.6298 23.5535 12.273 23.4194 11.9949 23.1758C10.9445 22.2574 9.93188 21.3943 9.03845 20.633L9.03389 20.629C6.41449 18.3969 4.15255 16.4691 2.57873 14.5702C0.819441 12.4473 0 10.4345 0 8.23564C0 6.09926 0.732558 4.12831 2.06259 2.68561C3.40849 1.22585 5.25525 0.421875 7.26329 0.421875C8.76411 0.421875 10.1386 0.896362 11.3484 1.83205C11.959 2.30435 12.5124 2.88239 13 3.55663C13.4878 2.88239 14.041 2.30435 14.6518 1.83205C15.8616 0.896362 17.236 0.421875 18.7369 0.421875C20.7447 0.421875 22.5917 1.22585 23.9376 2.68561C25.2676 4.12831 25.9999 6.09926 25.9999 8.23564C25.9999 10.4345 25.1807 12.4473 23.4214 14.57C21.8476 16.4691 19.5859 18.3967 16.9669 20.6286C16.0718 21.3912 15.0576 22.2556 14.0049 23.1762C13.727 23.4194 13.3699 23.5535 13 23.5535ZM7.26329 1.94492C5.6857 1.94492 4.23646 2.57452 3.18215 3.7179C2.11218 4.87852 1.52284 6.48289 1.52284 8.23564C1.52284 10.085 2.21017 11.739 3.75126 13.5984C5.24077 15.3958 7.4563 17.2838 10.0215 19.47L10.0263 19.474C10.9231 20.2383 11.9397 21.1047 12.9978 22.0299C14.0622 21.1029 15.0804 20.2351 15.979 19.4696C18.544 17.2834 20.7594 15.3958 22.2489 13.5984C23.7898 11.739 24.4771 10.085 24.4771 8.23564C24.4771 6.48289 23.8878 4.87852 22.8178 3.7179C21.7637 2.57452 20.3142 1.94492 18.7369 1.94492C17.5812 1.94492 16.5201 2.31229 15.5833 3.03671C14.7484 3.68259 14.1668 4.49905 13.8258 5.07034C13.6504 5.36412 13.3418 5.53947 13 5.53947C12.6582 5.53947 12.3495 5.36412 12.1742 5.07034C11.8334 4.49905 11.2518 3.68259 10.4167 3.03671C9.47981 2.31229 8.41876 1.94492 7.26329 1.94492Z" fill="currentColor"/>
    </symbol>

    <symbol id="like_checked">
      <path d="M13 23.1317C12.6298 23.1317 12.273 22.9976 11.9949 22.754C10.9445 21.8355 9.93188 20.9725 9.03845 20.2111L9.03389 20.2072C6.41449 17.975 4.15255 16.0473 2.57873 14.1483C0.819441 12.0254 0 10.0126 0 7.81377C0 5.67738 0.732558 3.70644 2.06259 2.26373C3.40849 0.80397 5.25525 0 7.26329 0C8.76411 0 10.1386 0.474487 11.3484 1.41017C11.959 1.88248 12.5124 2.46051 13 3.13475C13.4878 2.46051 14.041 1.88248 14.6518 1.41017C15.8616 0.474487 17.236 0 18.7369 0C20.7447 0 22.5917 0.80397 23.9376 2.26373C25.2676 3.70644 25.9999 5.67738 25.9999 7.81377C25.9999 10.0126 25.1807 12.0254 23.4214 14.1481C21.8476 16.0473 19.5859 17.9748 16.9669 20.2068C16.0718 20.9693 15.0576 21.8338 14.0049 22.7544C13.727 22.9976 13.3699 23.1317 13 23.1317Z" fill="#FF0000"/>
    </symbol>

    <symbol id="location">
      <path fill-rule="evenodd" clip-rule="evenodd" d="M8.02384 0.66679C4.18298 0.653741 1.04575 3.70954 0.92036 7.53454L0.916504 7.77196C0.980345 9.64681 1.61823 11.434 2.74174 12.9064L3.00561 13.2508C4.07801 14.6143 5.35243 15.8112 6.7834 16.7977L7.12793 17.0296L7.17821 17.0691C7.66867 17.4215 8.33089 17.4215 8.82135 17.0691L8.8632 17.0347C9.99864 16.2983 11.0457 15.4331 11.9836 14.4562C13.8903 12.4377 15.0396 10.1761 15.083 7.87923L15.0831 7.79395C15.0961 3.94335 12.0497 0.796473 8.23647 0.670657L8.02384 0.66679ZM8.01989 1.93143C11.1687 1.9422 13.7252 4.45806 13.8201 7.59114L13.8228 7.86739C13.7863 9.79307 12.778 11.7772 11.0723 13.5828C10.2026 14.4888 9.22746 15.294 8.16981 15.9789L8.09932 16.0319C8.04236 16.0813 7.95787 16.0813 7.90091 16.0319L7.8324 15.9802C6.25682 14.9515 4.87398 13.6527 3.74714 12.1433C2.83949 10.9537 2.30163 9.53137 2.19337 8.04762L2.17747 7.7501C2.18816 4.59372 4.69627 2.02936 7.81972 1.93414L8.01989 1.93143ZM7.99946 5.16771C6.50913 5.16771 5.30098 6.37959 5.30098 7.87452C5.30098 9.36945 6.50913 10.5813 7.99946 10.5813C9.48978 10.5813 10.6979 9.36945 10.6979 7.87452C10.6979 6.37959 9.48978 5.16771 7.99946 5.16771ZM7.99979 6.43233C8.7939 6.43233 9.43764 7.07806 9.43764 7.87461C9.43764 8.67116 8.7939 9.3169 7.99979 9.3169C7.20569 9.3169 6.56195 8.67116 6.56195 7.87461C6.56195 7.07806 7.20569 6.43233 7.99979 6.43233Z" fill="currentColor"/>
    </symbol>

    <symbol id="arrow_down">
      <path d="M2.12053 3.87295C2.26663 3.72392 2.49525 3.71037 2.65636 3.83231L2.70251 3.87295L6 7.23671L9.29749 3.87295C9.44359 3.72392 9.67221 3.71037 9.83331 3.83231L9.87947 3.87295C10.0256 4.02198 10.0388 4.25519 9.91931 4.41952L9.87947 4.4666L6.29099 8.12705C6.14489 8.27608 5.91627 8.28963 5.75517 8.1677L5.70901 8.12705L2.12053 4.4666C1.95982 4.30267 1.95982 4.03688 2.12053 3.87295Z" fill="currentColor"/>
    </symbol>

    <symbol id="search">
      <path fill-rule="evenodd" clip-rule="evenodd" d="M10.8919 0.083252C5.36242 0.083252 0.879883 4.46679 0.879883 9.87415C0.879883 15.2815 5.36242 19.665 10.8919 19.665C13.2568 19.665 15.4303 18.8632 17.1434 17.5223L20.3977 20.6965L20.4843 20.7694C20.7864 20.9881 21.2148 20.9632 21.4881 20.6951C21.7889 20.4003 21.7882 19.9229 21.4867 19.6288L18.2707 16.4919C19.9059 14.7493 20.9039 12.4257 20.9039 9.87415C20.9039 4.46679 16.4214 0.083252 10.8919 0.083252ZM10.8921 1.59117C15.5699 1.59117 19.362 5.29952 19.362 9.87401C19.362 14.4485 15.5699 18.1568 10.8921 18.1568C6.21427 18.1568 2.42217 14.4485 2.42217 9.87401C2.42217 5.29952 6.21427 1.59117 10.8921 1.59117Z" fill="currentColor"/>
    </symbol>

    <symbol id="logo">
      <path d="M20.3756 -2.26498e-06L21.1273 -0.00473738L21.1226 -0.751785H20.3756V-2.26498e-06ZM6.7447 -2.26498e-06V-0.751785H5.99292V-2.26498e-06H6.7447ZM34.5706 -2.26498e-06V-0.751785H33.8235L33.8188 -0.0047372L34.5706 -2.26498e-06ZM48.2026 -2.26498e-06H48.9544V-0.751785H48.2026V-2.26498e-06ZM48.2026 50V50.7518H48.9544V50H48.2026ZM34.3826 50L33.6308 49.9953L33.6261 50.7518H34.3826V50ZM20.3756 50V50.7518H21.1321L21.1273 49.9953L20.3756 50ZM6.7447 50H5.99292V50.7518H6.7447V50ZM20.3756 -0.751785H6.7447V0.751781H7.49648H20.3756V-0.751785ZM27.4731 6.46007C23.9981 6.46007 21.1499 3.58552 21.1273 -0.00473738L19.6238 0.00473285C19.6514 4.38927 23.1394 7.96364 27.4731 7.96364V6.46007ZM33.8188 -0.0047372C33.7962 3.58552 30.9481 6.46007 27.4731 6.46007V7.96364C31.8068 7.96364 35.2947 4.38927 35.3224 0.00473267L33.8188 -0.0047372ZM48.2026 -0.751785H34.5706V0.751781H47.4508H48.2026V-0.751785ZM34.3826 50.7518H48.2026V49.2482H47.4508H34.3826V50.7518ZM33.6309 49.952C33.6309 49.9664 33.6309 49.9808 33.6308 49.9953L35.1343 50.0047C35.1344 49.9872 35.1345 49.9696 35.1345 49.952H33.6309ZM27.3791 43.4442C30.8067 43.4442 33.6309 46.3322 33.6309 49.952H35.1345C35.1345 45.5531 31.6875 41.9406 27.3791 41.9406V43.4442ZM21.1272 49.952C21.1272 46.3322 23.9515 43.4442 27.3791 43.4442V41.9406C23.0707 41.9406 19.6236 45.5531 19.6236 49.952H21.1272ZM21.1273 49.9953C21.1272 49.9809 21.1272 49.9665 21.1272 49.952H19.6236C19.6236 49.9696 19.6237 49.9871 19.6238 50.0047L21.1273 49.9953ZM6.7447 50.7518H20.3756V49.2482H7.49648H6.7447V50.7518Z" fill="currentColor"/>
      <path d="M48.9544 -2.26498e-06H48.2026V0.751781H47.4508V13.5H48.9544V-2.26498e-06Z" fill="currentColor"/>
      <path d="M48.2026 50H48.9544V36.5H47.4508V49.2482H48.2026V50Z" fill="currentColor"/>
      <path d="M5.99292 50H6.7447V49.2482H7.49648V36.5H5.99292V50Z" fill="currentColor"/>
      <path d="M6.7447 -2.26498e-06H5.99292V13.5H7.49648V0.751781H6.7447V-2.26498e-06Z" fill="currentColor"/>
      <path d="M0.838131 27.6318L2.54601 27.6075L2.50158 24.324L5.09346 24.2871L5.13789 27.5706L6.83976 27.5464L6.77922 23.0722L0.777588 23.1576L0.838131 27.6318ZM11.4085 26.08C13.0443 26.0567 13.5221 25.3643 13.5111 24.5524L13.5098 24.4562C13.4987 23.6323 13.0207 22.9835 11.367 23.007L7.63851 23.06L7.69905 27.5342L9.40693 27.5099L9.38797 26.1087L11.4085 26.08ZM9.36152 24.1543L11.1776 24.1285C11.5806 24.1227 11.745 24.2708 11.7485 24.5294L11.7487 24.5474C11.752 24.794 11.5798 24.9588 11.1889 24.9644L9.37284 24.9902L9.36152 24.1543ZM17.2547 22.8391C14.3561 22.8803 14.0079 24.2626 14.0193 25.1046L14.0218 25.285C14.0331 26.1209 14.4189 27.5229 17.3175 27.4817L17.5881 27.4778C20.4807 27.4367 20.8285 26.0243 20.8172 25.1884L20.8147 25.008C20.8034 24.166 20.4119 22.7942 17.5253 22.8352L17.2547 22.8391ZM19.0484 25.1594C19.0549 25.6405 18.7565 26.2522 17.4335 26.271C16.1105 26.2898 15.7952 25.6628 15.7889 25.1937L15.7879 25.1215C15.7815 24.6464 16.0562 24.0591 17.4033 24.0399C18.7263 24.0211 19.0409 24.6001 19.0473 25.0752L19.0484 25.1594ZM22.6756 27.3213L23.8954 25.9025L25.1652 27.2859L27.264 27.256L25.2061 24.9696L27.1133 22.7831L25.0867 22.8119L23.9619 24.1452L22.8075 22.8443L20.6245 22.8754L22.6385 25.0241L20.6189 27.3505L22.6756 27.3213ZM30.2651 22.6541C27.3665 22.6953 27.0183 24.0777 27.0297 24.9196L27.0322 25.1C27.0435 25.9359 27.4293 27.3379 30.3279 27.2967L30.5985 27.2928C33.4911 27.2517 33.8389 25.8393 33.8276 25.0034L33.8251 24.823C33.8138 23.9811 33.4223 22.6092 30.5357 22.6503L30.2651 22.6541ZM32.0588 24.9744C32.0654 25.4555 31.7669 26.0672 30.4439 26.0861C29.1209 26.1049 28.8056 25.4778 28.7993 25.0087L28.7983 24.9365C28.7919 24.4615 29.0666 23.8741 30.4137 23.855C31.7367 23.8362 32.0513 24.4151 32.0577 24.8902L32.0588 24.9744ZM34.0912 25.968L34.1178 27.9405L35.7235 27.9177L35.7129 27.1359L39.3271 27.0845L39.3377 27.8663L40.9433 27.8435L40.9167 25.871L40.195 25.8812L40.1506 22.5978L34.9488 22.6717C34.9755 24.6442 34.9324 25.4629 34.6805 25.9597L34.0912 25.968ZM36.2621 25.9372C36.4494 25.5556 36.5165 24.7366 36.5044 23.8405L38.4588 23.8128L38.4871 25.9055L36.2621 25.9372ZM45.4221 26.9979L47.6472 26.9662L44.9261 24.5629L47.5025 22.4932L45.3796 22.5234L43.2026 24.3227L43.1786 22.5547L41.4708 22.579L41.5313 27.0532L43.2392 27.0289L43.2121 25.0263L45.4221 26.9979ZM51.8367 25.0661L50.3513 25.0872L51.0642 23.5373L51.8367 25.0661ZM52.7576 26.8936L54.6279 26.867L52.228 22.426L49.9308 22.4587L47.7783 26.9644L49.5103 26.9398L49.8433 26.2132L52.3991 26.1769L52.7576 26.8936Z" fill="currentColor"/>
    </symbol>

    <symbol id="cart">
      <path fill-rule="evenodd" clip-rule="evenodd" d="M3.59754 3.13864L3.47073 3.12538C3.00925 3.10851 2.59483 3.43486 2.51389 3.90253L2.50062 4.02934C2.48375 4.49081 2.8101 4.90523 3.27777 4.98618L5.16403 5.31241L6.30719 18.9321L6.33085 19.1368C6.56085 20.6898 7.89666 21.8574 9.48765 21.8574H23.1277L23.3331 21.8509C24.8285 21.7554 26.0684 20.6245 26.2867 19.1222L27.473 10.9242L27.4935 10.7359C27.6026 9.23702 26.4153 7.93616 24.8864 7.93616H7.26528L6.97187 4.43399L6.94975 4.29543C6.8642 3.93502 6.57122 3.65332 6.19754 3.58864L3.59754 3.13864ZM9.34255 19.9745C8.72346 19.9067 8.22836 19.4096 8.17548 18.7757L7.4226 9.81116H24.8862L24.9964 9.81926C25.3911 9.87794 25.6762 10.247 25.6171 10.6557L24.4309 18.8531L24.4011 18.9997C24.2507 19.5729 23.7314 19.9824 23.1275 19.9824H9.48747L9.34255 19.9745ZM7.38557 25.7315C7.38557 24.6864 8.23267 23.8378 9.27807 23.8378C10.3233 23.8378 11.1718 24.6863 11.1718 25.7315C11.1718 26.7769 10.3232 27.624 9.27807 27.624C8.23281 27.624 7.38557 26.7768 7.38557 25.7315ZM21.45 25.7315C21.45 24.6863 22.2984 23.8378 23.3437 23.8378C24.389 23.8378 25.2375 24.6863 25.2375 25.7315C25.2375 26.7769 24.3888 27.624 23.3437 27.624C22.2986 27.624 21.45 26.7769 21.45 25.7315ZM22.0606 13.4937C22.0606 12.9759 21.6409 12.5562 21.1231 12.5562H17.6569L17.5297 12.5647C17.0721 12.6268 16.7194 13.019 16.7194 13.4937C16.7194 14.0114 17.1391 14.4312 17.6569 14.4312H21.1231L21.2503 14.4226C21.7079 14.3605 22.0606 13.9683 22.0606 13.4937Z" fill="currentColor"/>
    </symbol>

    <symbol id="person">
      <path fill-rule="evenodd" clip-rule="evenodd" d="M10.3466 0.499756C6.65972 0.499756 3.69914 3.45989 3.69914 7.14726C3.69914 10.8338 6.66012 13.7948 10.3466 13.7948C14.034 13.7948 16.9941 10.8342 16.9941 7.14726C16.9941 3.45949 14.0344 0.499756 10.3466 0.499756ZM10.3466 2.37476C12.9989 2.37476 15.1191 4.49502 15.1191 7.14726C15.1191 9.7987 12.9984 11.9198 10.3466 11.9198C7.69565 11.9198 5.57414 9.79824 5.57414 7.14726C5.57414 4.49549 7.69519 2.37476 10.3466 2.37476ZM10.3467 16.0701C4.05923 16.0701 0.500488 17.2632 0.500488 20.6439C0.500488 24.0283 4.07502 25.2439 10.3467 25.2439L11.1511 25.237C16.9355 25.1359 20.193 23.903 20.193 20.6701C20.193 17.3593 16.7722 16.124 10.7519 16.0719L10.3467 16.0701ZM10.3467 17.9451C15.5986 17.9451 18.318 18.8699 18.318 20.6701C18.318 22.4592 15.6052 23.3689 10.3467 23.3689C5.09491 23.3689 2.37549 22.4441 2.37549 20.6439C2.37549 18.9025 4.94219 17.9949 9.92584 17.9471L10.3467 17.9451ZM22.005 7.89875C22.4796 7.89875 22.8718 8.25145 22.9339 8.70904L22.9425 8.83625V10.4049H24.5626C25.0804 10.4049 25.5001 10.8246 25.5001 11.3424C25.5001 11.817 25.1474 12.2092 24.6898 12.2713L24.5626 12.2799H22.9425V13.8488C22.9425 14.3665 22.5227 14.7863 22.005 14.7863C21.5303 14.7863 21.1381 14.4336 21.076 13.976L21.0675 13.8488V12.2799H19.4501C18.9324 12.2799 18.5126 11.8601 18.5126 11.3424C18.5126 10.8678 18.8653 10.4755 19.3229 10.4134L19.4501 10.4049H21.0675V8.83625C21.0675 8.31849 21.4872 7.89875 22.005 7.89875Z" fill="currentColor"/>
    </symbol>

  </defs>
</svg>
