<svg xmlns="http://www.w3.org/2000/svg" style="display: none">
  <defs>

    <symbol id="repost">
      <path d="M13 6.00759L7.59745 0.528442V3.7974H6.44882C2.88719 3.7974 0 6.46772 0 9.76181V11.4942L0.510193 10.9771C2.24479 9.21931 4.69915 8.21778 7.27233 8.21778H7.59745V11.4867L13 6.00759Z" fill="currentColor"/>
    </symbol>

    <symbol id="like_unchecked">
      <path d="M13 23.5535C12.6298 23.5535 12.273 23.4194 11.9949 23.1758C10.9445 22.2574 9.93188 21.3943 9.03845 20.633L9.03389 20.629C6.41449 18.3969 4.15255 16.4691 2.57873 14.5702C0.819441 12.4473 0 10.4345 0 8.23564C0 6.09926 0.732558 4.12831 2.06259 2.68561C3.40849 1.22585 5.25525 0.421875 7.26329 0.421875C8.76411 0.421875 10.1386 0.896362 11.3484 1.83205C11.959 2.30435 12.5124 2.88239 13 3.55663C13.4878 2.88239 14.041 2.30435 14.6518 1.83205C15.8616 0.896362 17.236 0.421875 18.7369 0.421875C20.7447 0.421875 22.5917 1.22585 23.9376 2.68561C25.2676 4.12831 25.9999 6.09926 25.9999 8.23564C25.9999 10.4345 25.1807 12.4473 23.4214 14.57C21.8476 16.4691 19.5859 18.3967 16.9669 20.6286C16.0718 21.3912 15.0576 22.2556 14.0049 23.1762C13.727 23.4194 13.3699 23.5535 13 23.5535ZM7.26329 1.94492C5.6857 1.94492 4.23646 2.57452 3.18215 3.7179C2.11218 4.87852 1.52284 6.48289 1.52284 8.23564C1.52284 10.085 2.21017 11.739 3.75126 13.5984C5.24077 15.3958 7.4563 17.2838 10.0215 19.47L10.0263 19.474C10.9231 20.2383 11.9397 21.1047 12.9978 22.0299C14.0622 21.1029 15.0804 20.2351 15.979 19.4696C18.544 17.2834 20.7594 15.3958 22.2489 13.5984C23.7898 11.739 24.4771 10.085 24.4771 8.23564C24.4771 6.48289 23.8878 4.87852 22.8178 3.7179C21.7637 2.57452 20.3142 1.94492 18.7369 1.94492C17.5812 1.94492 16.5201 2.31229 15.5833 3.03671C14.7484 3.68259 14.1668 4.49905 13.8258 5.07034C13.6504 5.36412 13.3418 5.53947 13 5.53947C12.6582 5.53947 12.3495 5.36412 12.1742 5.07034C11.8334 4.49905 11.2518 3.68259 10.4167 3.03671C9.47981 2.31229 8.41876 1.94492 7.26329 1.94492Z" fill="currentColor"/>
    </symbol>

    <symbol id="like_checked">
      <path d="M13 23.1317C12.6298 23.1317 12.273 22.9976 11.9949 22.754C10.9445 21.8355 9.93188 20.9725 9.03845 20.2111L9.03389 20.2072C6.41449 17.975 4.15255 16.0473 2.57873 14.1483C0.819441 12.0254 0 10.0126 0 7.81377C0 5.67738 0.732558 3.70644 2.06259 2.26373C3.40849 0.80397 5.25525 0 7.26329 0C8.76411 0 10.1386 0.474487 11.3484 1.41017C11.959 1.88248 12.5124 2.46051 13 3.13475C13.4878 2.46051 14.041 1.88248 14.6518 1.41017C15.8616 0.474487 17.236 0 18.7369 0C20.7447 0 22.5917 0.80397 23.9376 2.26373C25.2676 3.70644 25.9999 5.67738 25.9999 7.81377C25.9999 10.0126 25.1807 12.0254 23.4214 14.1481C21.8476 16.0473 19.5859 17.9748 16.9669 20.2068C16.0718 20.9693 15.0576 21.8338 14.0049 22.7544C13.727 22.9976 13.3699 23.1317 13 23.1317Z" fill="#FF0000"/>
    </symbol>

    <symbol id="location">
      <path fill-rule="evenodd" clip-rule="evenodd" d="M8.02384 0.66679C4.18298 0.653741 1.04575 3.70954 0.92036 7.53454L0.916504 7.77196C0.980345 9.64681 1.61823 11.434 2.74174 12.9064L3.00561 13.2508C4.07801 14.6143 5.35243 15.8112 6.7834 16.7977L7.12793 17.0296L7.17821 17.0691C7.66867 17.4215 8.33089 17.4215 8.82135 17.0691L8.8632 17.0347C9.99864 16.2983 11.0457 15.4331 11.9836 14.4562C13.8903 12.4377 15.0396 10.1761 15.083 7.87923L15.0831 7.79395C15.0961 3.94335 12.0497 0.796473 8.23647 0.670657L8.02384 0.66679ZM8.01989 1.93143C11.1687 1.9422 13.7252 4.45806 13.8201 7.59114L13.8228 7.86739C13.7863 9.79307 12.778 11.7772 11.0723 13.5828C10.2026 14.4888 9.22746 15.294 8.16981 15.9789L8.09932 16.0319C8.04236 16.0813 7.95787 16.0813 7.90091 16.0319L7.8324 15.9802C6.25682 14.9515 4.87398 13.6527 3.74714 12.1433C2.83949 10.9537 2.30163 9.53137 2.19337 8.04762L2.17747 7.7501C2.18816 4.59372 4.69627 2.02936 7.81972 1.93414L8.01989 1.93143ZM7.99946 5.16771C6.50913 5.16771 5.30098 6.37959 5.30098 7.87452C5.30098 9.36945 6.50913 10.5813 7.99946 10.5813C9.48978 10.5813 10.6979 9.36945 10.6979 7.87452C10.6979 6.37959 9.48978 5.16771 7.99946 5.16771ZM7.99979 6.43233C8.7939 6.43233 9.43764 7.07806 9.43764 7.87461C9.43764 8.67116 8.7939 9.3169 7.99979 9.3169C7.20569 9.3169 6.56195 8.67116 6.56195 7.87461C6.56195 7.07806 7.20569 6.43233 7.99979 6.43233Z" fill="currentColor"/>
    </symbol>

    <symbol id="arrow_down" viewbox="0 0 20 30">
      <path d="M2.12053 3.87295C2.26663 3.72392 2.49525 3.71037 2.65636 3.83231L2.70251 3.87295L6 7.23671L9.29749 3.87295C9.44359 3.72392 9.67221 3.71037 9.83331 3.83231L9.87947 3.87295C10.0256 4.02198 10.0388 4.25519 9.91931 4.41952L9.87947 4.4666L6.29099 8.12705C6.14489 8.27608 5.91627 8.28963 5.75517 8.1677L5.70901 8.12705L2.12053 4.4666C1.95982 4.30267 1.95982 4.03688 2.12053 3.87295Z" fill="currentColor"/>
    </symbol>

    <symbol id="arrow_down_bold">
      <path d="M50.5 1.5L26 14.5L0.5 1.5" stroke="currentColor" fill="transparent" stroke-width="2"/>
    </symbol>

    <symbol id="search">
      <path fill-rule="evenodd" clip-rule="evenodd" d="M10.8919 0.083252C5.36242 0.083252 0.879883 4.46679 0.879883 9.87415C0.879883 15.2815 5.36242 19.665 10.8919 19.665C13.2568 19.665 15.4303 18.8632 17.1434 17.5223L20.3977 20.6965L20.4843 20.7694C20.7864 20.9881 21.2148 20.9632 21.4881 20.6951C21.7889 20.4003 21.7882 19.9229 21.4867 19.6288L18.2707 16.4919C19.9059 14.7493 20.9039 12.4257 20.9039 9.87415C20.9039 4.46679 16.4214 0.083252 10.8919 0.083252ZM10.8921 1.59117C15.5699 1.59117 19.362 5.29952 19.362 9.87401C19.362 14.4485 15.5699 18.1568 10.8921 18.1568C6.21427 18.1568 2.42217 14.4485 2.42217 9.87401C2.42217 5.29952 6.21427 1.59117 10.8921 1.59117Z" fill="currentColor"/>
    </symbol>

    <symbol id="logo">
      <path d="M20.3756 -2.26498e-06L21.1273 -0.00473738L21.1226 -0.751785H20.3756V-2.26498e-06ZM6.7447 -2.26498e-06V-0.751785H5.99292V-2.26498e-06H6.7447ZM34.5706 -2.26498e-06V-0.751785H33.8235L33.8188 -0.0047372L34.5706 -2.26498e-06ZM48.2026 -2.26498e-06H48.9544V-0.751785H48.2026V-2.26498e-06ZM48.2026 50V50.7518H48.9544V50H48.2026ZM34.3826 50L33.6308 49.9953L33.6261 50.7518H34.3826V50ZM20.3756 50V50.7518H21.1321L21.1273 49.9953L20.3756 50ZM6.7447 50H5.99292V50.7518H6.7447V50ZM20.3756 -0.751785H6.7447V0.751781H7.49648H20.3756V-0.751785ZM27.4731 6.46007C23.9981 6.46007 21.1499 3.58552 21.1273 -0.00473738L19.6238 0.00473285C19.6514 4.38927 23.1394 7.96364 27.4731 7.96364V6.46007ZM33.8188 -0.0047372C33.7962 3.58552 30.9481 6.46007 27.4731 6.46007V7.96364C31.8068 7.96364 35.2947 4.38927 35.3224 0.00473267L33.8188 -0.0047372ZM48.2026 -0.751785H34.5706V0.751781H47.4508H48.2026V-0.751785ZM34.3826 50.7518H48.2026V49.2482H47.4508H34.3826V50.7518ZM33.6309 49.952C33.6309 49.9664 33.6309 49.9808 33.6308 49.9953L35.1343 50.0047C35.1344 49.9872 35.1345 49.9696 35.1345 49.952H33.6309ZM27.3791 43.4442C30.8067 43.4442 33.6309 46.3322 33.6309 49.952H35.1345C35.1345 45.5531 31.6875 41.9406 27.3791 41.9406V43.4442ZM21.1272 49.952C21.1272 46.3322 23.9515 43.4442 27.3791 43.4442V41.9406C23.0707 41.9406 19.6236 45.5531 19.6236 49.952H21.1272ZM21.1273 49.9953C21.1272 49.9809 21.1272 49.9665 21.1272 49.952H19.6236C19.6236 49.9696 19.6237 49.9871 19.6238 50.0047L21.1273 49.9953ZM6.7447 50.7518H20.3756V49.2482H7.49648H6.7447V50.7518Z" fill="currentColor"/>
      <path d="M48.9544 -2.26498e-06H48.2026V0.751781H47.4508V13.5H48.9544V-2.26498e-06Z" fill="currentColor"/>
      <path d="M48.2026 50H48.9544V36.5H47.4508V49.2482H48.2026V50Z" fill="currentColor"/>
      <path d="M5.99292 50H6.7447V49.2482H7.49648V36.5H5.99292V50Z" fill="currentColor"/>
      <path d="M6.7447 -2.26498e-06H5.99292V13.5H7.49648V0.751781H6.7447V-2.26498e-06Z" fill="currentColor"/>
      <path d="M0.838131 27.6318L2.54601 27.6075L2.50158 24.324L5.09346 24.2871L5.13789 27.5706L6.83976 27.5464L6.77922 23.0722L0.777588 23.1576L0.838131 27.6318ZM11.4085 26.08C13.0443 26.0567 13.5221 25.3643 13.5111 24.5524L13.5098 24.4562C13.4987 23.6323 13.0207 22.9835 11.367 23.007L7.63851 23.06L7.69905 27.5342L9.40693 27.5099L9.38797 26.1087L11.4085 26.08ZM9.36152 24.1543L11.1776 24.1285C11.5806 24.1227 11.745 24.2708 11.7485 24.5294L11.7487 24.5474C11.752 24.794 11.5798 24.9588 11.1889 24.9644L9.37284 24.9902L9.36152 24.1543ZM17.2547 22.8391C14.3561 22.8803 14.0079 24.2626 14.0193 25.1046L14.0218 25.285C14.0331 26.1209 14.4189 27.5229 17.3175 27.4817L17.5881 27.4778C20.4807 27.4367 20.8285 26.0243 20.8172 25.1884L20.8147 25.008C20.8034 24.166 20.4119 22.7942 17.5253 22.8352L17.2547 22.8391ZM19.0484 25.1594C19.0549 25.6405 18.7565 26.2522 17.4335 26.271C16.1105 26.2898 15.7952 25.6628 15.7889 25.1937L15.7879 25.1215C15.7815 24.6464 16.0562 24.0591 17.4033 24.0399C18.7263 24.0211 19.0409 24.6001 19.0473 25.0752L19.0484 25.1594ZM22.6756 27.3213L23.8954 25.9025L25.1652 27.2859L27.264 27.256L25.2061 24.9696L27.1133 22.7831L25.0867 22.8119L23.9619 24.1452L22.8075 22.8443L20.6245 22.8754L22.6385 25.0241L20.6189 27.3505L22.6756 27.3213ZM30.2651 22.6541C27.3665 22.6953 27.0183 24.0777 27.0297 24.9196L27.0322 25.1C27.0435 25.9359 27.4293 27.3379 30.3279 27.2967L30.5985 27.2928C33.4911 27.2517 33.8389 25.8393 33.8276 25.0034L33.8251 24.823C33.8138 23.9811 33.4223 22.6092 30.5357 22.6503L30.2651 22.6541ZM32.0588 24.9744C32.0654 25.4555 31.7669 26.0672 30.4439 26.0861C29.1209 26.1049 28.8056 25.4778 28.7993 25.0087L28.7983 24.9365C28.7919 24.4615 29.0666 23.8741 30.4137 23.855C31.7367 23.8362 32.0513 24.4151 32.0577 24.8902L32.0588 24.9744ZM34.0912 25.968L34.1178 27.9405L35.7235 27.9177L35.7129 27.1359L39.3271 27.0845L39.3377 27.8663L40.9433 27.8435L40.9167 25.871L40.195 25.8812L40.1506 22.5978L34.9488 22.6717C34.9755 24.6442 34.9324 25.4629 34.6805 25.9597L34.0912 25.968ZM36.2621 25.9372C36.4494 25.5556 36.5165 24.7366 36.5044 23.8405L38.4588 23.8128L38.4871 25.9055L36.2621 25.9372ZM45.4221 26.9979L47.6472 26.9662L44.9261 24.5629L47.5025 22.4932L45.3796 22.5234L43.2026 24.3227L43.1786 22.5547L41.4708 22.579L41.5313 27.0532L43.2392 27.0289L43.2121 25.0263L45.4221 26.9979ZM51.8367 25.0661L50.3513 25.0872L51.0642 23.5373L51.8367 25.0661ZM52.7576 26.8936L54.6279 26.867L52.228 22.426L49.9308 22.4587L47.7783 26.9644L49.5103 26.9398L49.8433 26.2132L52.3991 26.1769L52.7576 26.8936Z" fill="currentColor"/>
    </symbol>

    <symbol id="cart">
      <path fill-rule="evenodd" clip-rule="evenodd" d="M3.59754 3.13864L3.47073 3.12538C3.00925 3.10851 2.59483 3.43486 2.51389 3.90253L2.50062 4.02934C2.48375 4.49081 2.8101 4.90523 3.27777 4.98618L5.16403 5.31241L6.30719 18.9321L6.33085 19.1368C6.56085 20.6898 7.89666 21.8574 9.48765 21.8574H23.1277L23.3331 21.8509C24.8285 21.7554 26.0684 20.6245 26.2867 19.1222L27.473 10.9242L27.4935 10.7359C27.6026 9.23702 26.4153 7.93616 24.8864 7.93616H7.26528L6.97187 4.43399L6.94975 4.29543C6.8642 3.93502 6.57122 3.65332 6.19754 3.58864L3.59754 3.13864ZM9.34255 19.9745C8.72346 19.9067 8.22836 19.4096 8.17548 18.7757L7.4226 9.81116H24.8862L24.9964 9.81926C25.3911 9.87794 25.6762 10.247 25.6171 10.6557L24.4309 18.8531L24.4011 18.9997C24.2507 19.5729 23.7314 19.9824 23.1275 19.9824H9.48747L9.34255 19.9745ZM7.38557 25.7315C7.38557 24.6864 8.23267 23.8378 9.27807 23.8378C10.3233 23.8378 11.1718 24.6863 11.1718 25.7315C11.1718 26.7769 10.3232 27.624 9.27807 27.624C8.23281 27.624 7.38557 26.7768 7.38557 25.7315ZM21.45 25.7315C21.45 24.6863 22.2984 23.8378 23.3437 23.8378C24.389 23.8378 25.2375 24.6863 25.2375 25.7315C25.2375 26.7769 24.3888 27.624 23.3437 27.624C22.2986 27.624 21.45 26.7769 21.45 25.7315ZM22.0606 13.4937C22.0606 12.9759 21.6409 12.5562 21.1231 12.5562H17.6569L17.5297 12.5647C17.0721 12.6268 16.7194 13.019 16.7194 13.4937C16.7194 14.0114 17.1391 14.4312 17.6569 14.4312H21.1231L21.2503 14.4226C21.7079 14.3605 22.0606 13.9683 22.0606 13.4937Z" fill="currentColor"/>
    </symbol>

    <symbol id="person">
      <path fill-rule="evenodd" clip-rule="evenodd" d="M10.3466 0.499756C6.65972 0.499756 3.69914 3.45989 3.69914 7.14726C3.69914 10.8338 6.66012 13.7948 10.3466 13.7948C14.034 13.7948 16.9941 10.8342 16.9941 7.14726C16.9941 3.45949 14.0344 0.499756 10.3466 0.499756ZM10.3466 2.37476C12.9989 2.37476 15.1191 4.49502 15.1191 7.14726C15.1191 9.7987 12.9984 11.9198 10.3466 11.9198C7.69565 11.9198 5.57414 9.79824 5.57414 7.14726C5.57414 4.49549 7.69519 2.37476 10.3466 2.37476ZM10.3467 16.0701C4.05923 16.0701 0.500488 17.2632 0.500488 20.6439C0.500488 24.0283 4.07502 25.2439 10.3467 25.2439L11.1511 25.237C16.9355 25.1359 20.193 23.903 20.193 20.6701C20.193 17.3593 16.7722 16.124 10.7519 16.0719L10.3467 16.0701ZM10.3467 17.9451C15.5986 17.9451 18.318 18.8699 18.318 20.6701C18.318 22.4592 15.6052 23.3689 10.3467 23.3689C5.09491 23.3689 2.37549 22.4441 2.37549 20.6439C2.37549 18.9025 4.94219 17.9949 9.92584 17.9471L10.3467 17.9451ZM22.005 7.89875C22.4796 7.89875 22.8718 8.25145 22.9339 8.70904L22.9425 8.83625V10.4049H24.5626C25.0804 10.4049 25.5001 10.8246 25.5001 11.3424C25.5001 11.817 25.1474 12.2092 24.6898 12.2713L24.5626 12.2799H22.9425V13.8488C22.9425 14.3665 22.5227 14.7863 22.005 14.7863C21.5303 14.7863 21.1381 14.4336 21.076 13.976L21.0675 13.8488V12.2799H19.4501C18.9324 12.2799 18.5126 11.8601 18.5126 11.3424C18.5126 10.8678 18.8653 10.4755 19.3229 10.4134L19.4501 10.4049H21.0675V8.83625C21.0675 8.31849 21.4872 7.89875 22.005 7.89875Z" fill="currentColor"/>
    </symbol>

    <symbol id="vk">
      <path d="M16.3336 0H8.65938C1.65625 0 -0.00390625 1.66016 -0.00390625 8.66328V16.3375C-0.00390625 23.3406 1.65625 25.0008 8.65938 25.0008H16.3336C23.3367 25.0008 24.9969 23.3406 24.9969 16.3375V8.66328C24.9969 1.66016 23.3203 0 16.3336 0ZM20.1789 17.8344H18.3641C17.6766 17.8344 17.4648 17.2891 16.2281 16.0359C15.1539 14.9945 14.6781 14.8563 14.4133 14.8563C14.0391 14.8563 13.9328 14.9617 13.9328 15.475V17.1148C13.9328 17.5547 13.7945 17.8188 12.6305 17.8188C10.7055 17.8188 8.56953 16.6547 7.07188 14.4859C4.81328 11.3078 4.19531 8.92734 4.19531 8.43516C4.19531 8.17031 4.30078 7.92266 4.80938 7.92266H6.62813C7.08828 7.92266 7.26328 8.13437 7.44219 8.62656C8.34141 11.2227 9.83907 13.4969 10.457 13.4969C10.6852 13.4969 10.7906 13.3914 10.7906 12.8094V10.1281C10.7211 8.89141 10.0703 8.78516 10.0703 8.34609C10.0703 8.13437 10.2453 7.92266 10.5258 7.92266H13.3859C13.7727 7.92266 13.9148 8.13437 13.9148 8.58984V12.207C13.9148 12.5977 14.0898 12.7359 14.1953 12.7359C14.4234 12.7359 14.6188 12.5977 15.0414 12.1742C16.3477 10.7094 17.2836 8.45078 17.2836 8.45078C17.4055 8.18594 17.6172 7.93828 18.0773 7.93828H19.8961C20.4414 7.93828 20.5633 8.21875 20.4414 8.60938C20.2133 9.66719 17.9875 12.8086 17.9875 12.8086C17.7961 13.1258 17.7227 13.2641 17.9875 13.618C18.1828 13.8828 18.818 14.432 19.2406 14.9242C20.018 15.807 20.6156 16.5477 20.775 17.0602C20.9539 17.5688 20.6898 17.8336 20.1766 17.8336L20.1789 17.8344Z" fill="currentColor"/>
    </symbol>

    <symbol id="facebook">
      <path d="M4.56485 0C2.03612 0 0 2.03612 0 4.56485V20.4352C0 22.9639 2.03612 25 4.56485 25H13.1664V15.2266H10.5821V11.7078H13.1664V8.70158C13.1664 6.3397 14.6934 4.1711 18.211 4.1711C19.6352 4.1711 20.6883 4.30783 20.6883 4.30783L20.6055 7.59378C20.6055 7.59378 19.5314 7.58363 18.3594 7.58363C17.0909 7.58363 16.8875 8.16807 16.8875 9.13832V11.7079H20.7063L20.5399 15.2266H16.8875V25.0001H20.4352C22.9639 25.0001 25 22.9639 25 20.4352V4.56488C25 2.03615 22.9639 2.5e-05 20.4352 2.5e-05L4.56485 0Z" fill="currentColor"/>
    </symbol>

    <symbol id="instagram">
      <path d="M12.4966 8.33156C10.2014 8.33156 8.32828 10.2047 8.32828 12.5C8.32828 14.7953 10.2014 16.6684 12.4966 16.6684C14.7919 16.6684 16.665 14.7953 16.665 12.5C16.665 10.2047 14.7919 8.33156 12.4966 8.33156ZM24.9986 12.5C24.9986 10.7738 25.0142 9.0633 24.9173 7.34026C24.8204 5.33891 24.3638 3.56271 22.9004 2.09922C21.4338 0.632607 19.6607 0.179176 17.6594 0.082235C15.9333 -0.0147055 14.2228 0.000930141 12.4998 0.000930141C10.7736 0.000930141 9.06313 -0.0147055 7.34013 0.082235C5.33881 0.179176 3.56265 0.635734 2.09918 2.09922C0.632595 3.56584 0.179172 5.33891 0.0822335 7.34026C-0.0147052 9.06643 0.000930124 10.777 0.000930124 12.5C0.000930124 14.223 -0.0147052 15.9367 0.0822335 17.6597C0.179172 19.6611 0.635722 21.4373 2.09918 22.9008C3.56577 24.3674 5.33881 24.8208 7.34013 24.9178C9.06626 25.0147 10.7768 24.9991 12.4998 24.9991C14.2259 24.9991 15.9364 25.0147 17.6594 24.9178C19.6607 24.8208 21.4369 24.3643 22.9004 22.9008C24.3669 21.4342 24.8204 19.6611 24.9173 17.6597C25.0174 15.9367 24.9986 14.2262 24.9986 12.5ZM12.4966 18.9137C8.94743 18.9137 6.08305 16.0493 6.08305 12.5C6.08305 8.95073 8.94743 6.08629 12.4966 6.08629C16.0458 6.08629 18.9102 8.95073 18.9102 12.5C18.9102 16.0493 16.0458 18.9137 12.4966 18.9137ZM19.1729 7.3215C18.3442 7.3215 17.675 6.6523 17.675 5.82361C17.675 4.99493 18.3442 4.32573 19.1729 4.32573C20.0016 4.32573 20.6708 4.99493 20.6708 5.82361C20.671 6.02039 20.6324 6.21528 20.5572 6.39712C20.4821 6.57897 20.3717 6.74419 20.2326 6.88333C20.0935 7.02247 19.9282 7.1328 19.7464 7.20798C19.5646 7.28317 19.3697 7.32175 19.1729 7.3215Z" fill="currentColor"/>
    </symbol>

    <symbol id="cross">
      <path fill-rule="evenodd" clip-rule="evenodd" d="M2.33823 0.356009C1.78775 -0.052525 1.0065 -0.00722007 0.5072 0.491978C-0.0420322 1.0411 -0.042125 1.93148 0.506992 2.48072L4.00906 5.98352L0.511855 9.48072L0.375696 9.63844C-0.0327811 10.189 0.0126052 10.9702 0.511855 11.4695C1.06103 12.0186 1.95142 12.0186 2.50059 11.4695L5.99759 7.97246L9.49949 11.4751L9.6572 11.6113C10.2077 12.0198 10.9889 11.9745 11.4882 11.4753C12.0375 10.9262 12.0376 10.0358 11.4884 9.48656L7.98633 5.98372L11.4856 2.48446L11.6218 2.32674C12.0302 1.77622 11.9848 0.994972 11.4856 0.495722C10.9364 -0.0534524 10.046 -0.0534524 9.49686 0.495722L5.9978 3.99478L2.49594 0.492185L2.33823 0.356009Z" fill="currentColor"/>
    </symbol>

    <symbol id="copy">
      <rect x="3.5" y="0.5" width="12" height="17" rx="1.5" fill="transparent" stroke="currentColor"/>
      <rect x="0.5" y="3.5" width="12" height="17" rx="1.5" fill="#151515" stroke="currentColor"/>
    </symbol>

    <symbol id="google_calendar" viewBox="0 0 364 364">
      <path d="M97.0505 14.1363C99.7932 13.691 102.764 13.6457 105.336 14.8603C109.141 16.3937 111.833 20.0377 112.755 23.9643C113.068 26.7577 112.977 29.719 111.656 32.2697C109.257 37.543 102.876 40.5843 97.2732 39.1217C91.5239 37.8363 87.2479 32.3043 87.3039 26.4297C87.1919 20.711 91.5692 15.487 97.0505 14.1363Z" fill="white"/>
      <path d="M261.464 14.1162C264.242 13.6816 267.238 13.6762 269.82 14.9509C274.09 16.8336 276.985 21.2922 277.294 25.9136C277.289 29.4709 276.1 33.1856 273.464 35.6762C271.221 38.0389 267.992 39.3442 264.769 39.4909C259.778 39.5629 254.748 36.5816 252.794 31.9256C251.529 29.4402 251.686 26.5762 251.848 23.8842C252.794 19.1362 256.772 15.2149 261.464 14.1162Z" fill="white"/>
      <path d="M244.965 208.479C251.468 208.449 257.972 208.443 264.469 208.479C264.389 234.325 264.454 260.177 264.44 286.022C257.961 286.022 251.484 286.027 245.001 286.017C244.985 260.171 245.056 234.325 244.965 208.479Z" fill="#DFDFDF"/>
      <path d="M261.463 14.1148C256.771 15.2135 252.794 19.1348 251.847 23.8828C251.686 26.5748 251.529 29.4388 252.794 31.9241C254.747 36.5801 259.778 39.5614 264.769 39.4894C267.991 39.3428 271.221 38.0374 273.463 35.6748C276.099 33.1841 277.289 29.4694 277.294 25.9121C276.985 21.2908 274.09 16.8321 269.819 14.9494C267.238 13.6748 264.242 13.6801 261.463 14.1148ZM97.0501 14.1348C91.5701 15.4868 87.1914 20.7095 87.3034 26.4281C87.2474 32.3041 91.5234 37.8348 97.2727 39.1201C102.875 40.5828 109.257 37.5414 111.657 32.2681C112.977 29.7174 113.069 26.7574 112.754 23.9628C111.833 20.0361 109.141 16.3921 105.335 14.8588C102.765 13.6441 99.7927 13.6894 97.0501 14.1348V14.1348ZM34.1434 2.83345C38.2434 1.03745 42.7781 0.764117 47.1954 0.876117C138.297 0.88545 229.398 0.87612 320.498 0.870787C330.438 0.702787 340.119 6.84678 344.138 15.9521C345.834 19.5401 346.551 23.5228 346.481 27.4801C346.441 36.3374 346.573 45.1934 346.43 54.0454C343.49 52.9268 340.322 52.6281 337.199 52.6081C234.119 52.6281 131.039 52.6174 27.9594 52.6228C24.6954 52.7094 21.3541 52.8508 18.2727 54.0508C18.1407 44.8494 18.2114 35.6494 18.1821 26.4534C18.1207 16.3108 24.7247 6.57345 34.1434 2.83345Z" fill="#C7C7C7"/>
      <path d="M259.935 130.895C261.393 130.292 262.982 130.323 264.526 130.444C264.434 156.376 264.535 182.313 264.475 208.245L264.47 208.479C257.971 208.443 251.469 208.448 244.965 208.479V208.251C244.955 190.32 244.95 172.393 244.97 154.463C232.005 158.775 219.063 163.157 206.093 167.444C206.053 161.589 206.123 155.733 206.057 149.879C223.993 143.487 241.99 137.251 259.935 130.895Z" fill="#C7C7C7"/>
      <path d="M101.277 140.212C109.4 134.022 119.568 130.824 129.72 130.444C139.79 130.09 150.216 131.72 159.026 136.836C165.996 140.829 171.512 147.221 174.518 154.661C177.514 162.09 178.465 170.304 177.554 178.244C175.606 190.962 165.784 201.236 154.305 206.317C155.945 206.813 157.544 207.436 159.072 208.21C158.065 208.402 157.048 208.513 156.025 208.484C142.482 208.386 128.94 208.574 115.406 208.392C115.357 205.452 115.285 202.506 115.473 199.57C125.236 199.338 135.534 200.533 144.669 196.25C152.174 193.082 157.757 185.906 158.814 177.804C159.725 170.086 158.946 161.645 154.37 155.11C150.773 149.938 144.674 147.074 138.576 146.168C130.346 145.02 121.324 145.84 114.416 150.834C107.613 155.617 104.014 164.058 104.188 172.252C97.9209 172.42 91.6515 172.293 85.3809 172.313C85.5022 168.872 85.7649 165.41 86.6609 162.074C88.8169 153.385 94.1355 145.576 101.277 140.212Z" fill="#C7C7C7"/>
      <path d="M18.2725 54.0511C21.3552 52.8511 24.6952 52.7098 27.9592 52.6245C131.039 52.6191 234.119 52.6285 337.199 52.6085C340.322 52.6285 343.49 52.9271 346.43 54.0458C355.338 57.2591 362.554 65.5085 363.486 75.0645C361.674 68.5151 357.757 62.4218 351.902 58.8138C347.661 56.1671 342.711 54.6378 337.701 54.6831C234.291 54.7551 130.878 54.7551 27.4632 54.7551C19.6739 54.6125 11.8245 57.9738 6.86053 64.0365C4.45119 66.6125 3.19119 69.9378 1.50586 72.9685C3.17653 64.2538 9.99253 56.9911 18.2725 54.0511Z" fill="#4483EF"/>
      <rect x="82" y="208" width="100" height="100" fill="#DFDFDF"/>
      <path d="M244.601 208.281L244.965 208.251V208.479C245.057 234.325 244.985 260.171 245.001 286.016C251.483 286.027 257.962 286.021 264.439 286.021C264.454 260.176 264.389 234.325 264.47 208.479L264.475 208.245L264.789 208.271C267.647 208.616 270.532 208.408 273.407 208.439C297.764 208.423 322.129 208.393 346.486 208.439C349.301 249.173 351.947 289.919 354.73 330.653C355.003 335.309 355.597 340.092 354.306 344.657L354.189 344.804C352.995 346.145 352.306 347.815 351.451 349.373C346.881 356.833 338.388 361.853 329.583 361.768C232.409 361.712 135.239 361.813 38.0712 361.779C35.0245 361.779 31.9165 361.935 28.9459 361.135C22.2299 359.303 16.1419 354.905 12.7619 348.756C12.0525 347.411 11.3952 346.028 10.4485 344.835L10.3272 344.667C8.70186 338.564 10.0232 332.237 10.2259 326.053C12.8979 286.872 15.4432 247.675 18.1512 208.493C50.5352 208.413 82.9259 208.448 115.31 208.473C115.341 210.336 115.355 212.199 115.33 214.061C125.594 214.259 136.333 213.028 146.055 217.092C152.619 219.653 158.009 225.139 160.083 231.916C162.371 239.416 162.109 247.716 159.421 255.08C156.915 261.983 150.914 267.316 143.905 269.376C135.391 271.897 125.913 271.679 117.714 268.161C111.333 265.433 106.125 259.937 104.155 253.237C103.219 250.287 102.855 247.184 102.799 244.103C96.5952 244.143 90.3899 244.128 84.1859 244.108C84.3019 251.957 86.2045 259.928 90.5872 266.517C95.2592 273.724 102.506 278.987 110.447 282.075C120.513 286.001 131.637 286.877 142.279 285.247C152.629 283.608 162.766 278.972 169.795 271.041C176.254 263.875 179.594 254.289 180.034 244.729C180.626 235.605 178.526 226.02 172.731 218.772C169.471 214.481 164.993 211.384 160.418 208.661C162.645 208.383 164.891 208.443 167.134 208.453C190.079 208.433 213.026 208.459 235.971 208.443C238.846 208.383 241.737 208.62 244.601 208.281Z" fill="#4483EF"/>
      <path d="M6.86053 64.037C11.8259 57.9743 19.6752 54.613 27.4632 54.7556C130.878 54.7556 234.291 54.7556 337.701 54.685C342.711 54.6383 347.661 56.1676 351.902 58.8143C357.757 62.4223 361.674 68.5156 363.486 75.0649C363.987 77.3769 363.85 79.777 363.587 82.1143C357.97 124.196 352.145 166.252 346.603 208.344C323.227 208.302 299.85 208.364 276.479 208.338C272.582 208.308 268.681 208.485 264.789 208.272L264.475 208.246C264.535 182.314 264.434 156.378 264.526 130.446C262.982 130.325 261.393 130.294 259.935 130.897C241.99 137.253 223.993 143.488 206.057 149.88C206.123 155.736 206.053 161.59 206.093 167.446C219.063 163.16 232.005 158.777 244.97 154.465C244.95 172.396 244.955 190.321 244.965 208.252L244.601 208.282C217.439 208.485 190.267 208.288 163.106 208.389C161.765 208.358 160.347 208.773 159.071 208.212C157.543 207.437 155.945 206.814 154.305 206.318C165.782 201.237 175.606 190.964 177.554 178.246C178.465 170.305 177.514 162.092 174.518 154.662C171.511 147.222 165.995 140.83 159.026 136.838C150.215 131.721 139.79 130.092 129.719 130.446C119.566 130.825 109.399 134.024 101.277 140.213C94.1352 145.578 88.8165 153.386 86.6605 162.077C85.7645 165.412 85.5019 168.873 85.3805 172.314C91.6512 172.294 97.9205 172.421 104.186 172.254C104.014 164.061 107.613 155.618 114.414 150.836C121.323 145.841 130.346 145.021 138.575 146.17C144.674 147.076 150.773 149.941 154.37 155.113C158.946 161.646 159.725 170.088 158.814 177.806C157.757 185.908 152.174 193.085 144.669 196.253C135.534 200.534 125.235 199.34 115.473 199.573L115.23 199.578C115.33 202.518 115.214 205.464 115.295 208.409C82.8952 208.358 50.4899 208.348 18.0859 208.414C12.5592 167.182 6.94719 125.962 1.38986 84.7356C0.752527 80.849 0.533861 76.8156 1.50586 72.969C3.19119 69.9383 4.45119 66.613 6.86053 64.037Z" fill="#3664D0"/>
      <path d="M10.4482 344.834C11.3949 346.029 12.0522 347.41 12.7616 348.757C16.1416 354.905 22.2296 359.304 28.9456 361.136C31.9162 361.936 35.0242 361.778 38.0709 361.778C135.24 361.813 232.408 361.713 329.583 361.768C338.388 361.854 346.88 356.834 351.451 349.374C352.306 347.816 352.995 346.145 354.188 344.804C352.043 353.109 345.363 360.002 337.195 362.562C332.639 364.152 327.756 363.752 323.024 363.802C228.38 363.802 133.736 363.797 39.0922 363.797C35.3176 363.828 31.4562 363.864 27.8229 362.684C19.4922 360.214 12.6442 353.256 10.4482 344.834Z" fill="#3664D0"/>
    </symbol>

    <symbol id="icalendar" viewBox="0 0 2160 2160">
      <path d="M2160 675.7C2160 649.9 2160 624.1 2159.9 598.3C2159.8 576.6 2159.5 554.8 2158.9 533.1C2157.6 485.8 2154.8 438 2146.4 391.2C2137.9 343.7 2123.9 299.5 2101.9 256.3C2080.3 213.9 2052.1 175.1 2018.5 141.4C1984.8 107.8 1946.1 79.6 1903.6 58C1860.5 36 1816.3 22.1 1768.8 13.6C1722 5.2 1674.2 2.4 1626.9 1.1C1605.2 0.5 1583.4 0.3 1561.7 0.1C1535.9 0 1510.1 0 1484.3 0H675.7C649.9 0 624.1 0 598.3 0.1C576.6 0.2 554.8 0.5 533.1 1.1C485.8 2.4 438 5.2 391.2 13.6C343.7 22.1 299.5 36.1 256.4 58C214 79.6 175.1 107.8 141.5 141.4C107.8 175.1 79.7 213.8 58.1 256.3C36.1 299.5 22.2 343.7 13.6 391.2C5.2 438 2.4 485.8 1.2 533.1C0.6 554.8 0.3 576.6 0.2 598.3C0 624.1 0 649.9 0 675.7V1484.3C0 1510.1 0 1535.9 0.2 1561.7C0.3 1583.4 0.6 1605.2 1.2 1626.9C2.5 1674.2 5.3 1722 13.7 1768.8C22.2 1816.3 36.2 1860.6 58.2 1903.7C79.8 1946.1 108 1984.9 141.6 2018.5C175.2 2052.2 214 2080.4 256.5 2102C299.6 2124 343.8 2137.9 391.3 2146.4C438.1 2154.8 485.9 2157.6 533.2 2158.9C554.9 2159.5 576.7 2159.7 598.4 2159.9C624.2 2160 650 2160 675.8 2160H1484.4C1510.2 2160 1536 2160 1561.8 2159.9C1583.5 2159.8 1605.3 2159.5 1627 2158.9C1674.3 2157.6 1722.1 2154.8 1768.9 2146.4C1816.4 2137.9 1860.6 2123.9 1903.7 2102C1946.1 2080.4 1984.9 2052.2 2018.6 2018.5C2052.3 1984.9 2080.4 1946.1 2102 1903.7C2124 1860.5 2137.9 1816.3 2146.5 1768.8C2154.9 1722 2157.7 1674.3 2159 1626.9C2159.6 1605.2 2159.8 1583.4 2160 1561.7C2160.1 1535.9 2160.1 1510.1 2160.1 1484.3V675.7H2160Z" fill="#F8F8F8"/>
      <path d="M806.2 1767.1V762.199H764L508 931.699V974.599L761.1 808.899H764.1V1767.2H806.2V1767.1Z" fill="black"/>
      <path d="M1056.3 762.199V800.699H1608.3V803.699L1165 1767.2H1212.4L1652 802.899V762.199H1056.3Z" fill="black"/>
      <path d="M392.5 565.101V347.801H393.3L479.2 542.901H507.7L593.3 347.801H594.3V565.101H622.8V277.301H592.6L494 507.901H493.2L394.3 277.401H364.1V565.101H392.5V565.101Z" fill="#FF0000"/>
      <path d="M777.7 340.6C717.6 340.6 684.2 384.3 684.2 443.5V465.2C684.2 524.7 717.3 568.6 777.7 568.6C838 568.6 870.9 524.7 870.9 465.2V443.5C871 384.3 837.6 340.6 777.7 340.6ZM777.7 367.8C816.9 367.8 839.9 397.1 839.9 445V463.6C839.9 511.7 816.9 541 777.7 541C738.2 541 715.3 511.5 715.3 463.6V445C715.3 397.2 738.3 367.8 777.7 367.8Z" fill="#FF0000"/>
      <path d="M929 565.1H960V429.8C960 398.2 977.3 369 1017.8 369C1052.4 369 1074.6 389.9 1074.6 427.6V564.9H1105.6V422.9C1105.6 369.3 1071.6 340.4 1026.1 340.4C989.8 340.4 969.1 359.4 960.9 374.2H960V344H929V565.1Z" fill="#FF0000"/>
      <path d="M1248.3 340.4C1193.4 340.4 1159.9 383.2 1159.9 443.1V465.7C1159.9 526.7 1190.9 568.4 1248.3 568.4C1280 568.4 1302.7 552.4 1314.5 530.6H1315.3V565H1344.6V261.9H1313.6V375.8H1312.8C1302.1 356.7 1279.3 340.4 1248.3 340.4ZM1251.1 368.1C1290.3 368.1 1314.4 398.9 1314.4 444.5V465C1314.4 512.5 1291 540.9 1251.5 540.9C1216.5 540.9 1191 515.4 1191 464.8V444.8C1190.9 393.2 1216.9 368.1 1251.1 368.1Z" fill="#FF0000"/>
      <path d="M1536.5 536.4H1537.3V565.1H1567.5V411.5C1567.5 366.1 1534.2 340.6 1488.2 340.6C1437 340.6 1410.6 367.4 1408 405.8H1437.3C1439.8 382.4 1456.5 367.4 1486.9 367.4C1518.3 367.4 1536.5 384.1 1536.5 415.1V438.9H1476.4C1426 439.1 1399.4 463.6 1399.4 501.8C1399.4 542.3 1428.7 568.7 1471.6 568.7C1505.3 568.6 1525.9 554.1 1536.5 536.4ZM1478.9 541.9C1454 541.9 1431.4 528.6 1431.4 501.2C1431.4 479.7 1445.1 464.3 1477.4 464.3H1536.5V491.5C1536.5 521.2 1511.8 541.9 1478.9 541.9Z" fill="#FF0000"/>
      <path d="M1795.9 344.199H1762.8L1699.7 528.999H1698.6L1635.5 344.199H1601L1683.5 568.599L1679.3 582.099C1672.8 604.899 1661.6 618.199 1635.6 618.199C1630.8 618.199 1622.9 617.599 1619.4 616.899V643.299C1624.9 644.099 1633.1 644.999 1640.5 644.999C1683.5 644.999 1698.3 615.499 1709.9 583.599L1716.2 567.099L1795.9 344.199Z" fill="#FF0000"/>
    </symbol>

    <symbol id="vk_alt" viewBox="0 0 29 28">
      <g clip-path="url(#clip0_2190:22218)">
      <path fill-rule="evenodd" clip-rule="evenodd" d="M27.5905 6.80064C27.7803 6.1764 27.5905 5.7168 26.6816 5.7168H23.6804C22.9167 5.7168 22.5646 6.11352 22.3736 6.5514C22.3736 6.5514 20.8473 10.2054 18.6854 12.5788C17.9857 13.2671 17.6679 13.4855 17.286 13.4855C17.0951 13.4855 16.8081 13.2671 16.8081 12.6417V6.80064C16.8081 6.05064 16.5977 5.7168 15.9621 5.7168H11.2425C10.7658 5.7168 10.4788 6.06436 10.4788 6.39477C10.4788 7.10475 11.5604 7.26939 11.6713 9.26786V13.6101C11.6713 14.5625 11.4964 14.7351 11.1145 14.7351C10.097 14.7351 7.62174 11.064 6.15261 6.86352C5.86793 6.04606 5.57982 5.7168 4.81267 5.7168H1.80924C0.951767 5.7168 0.780273 6.11352 0.780273 6.5514C0.780273 7.33113 1.7978 11.2046 5.51922 16.3277C8.00017 19.8262 11.4929 21.7229 14.6747 21.7229C16.5829 21.7229 16.8184 21.3022 16.8184 20.5762V17.9317C16.8184 17.0891 16.999 16.9211 17.6038 16.9211C18.0497 16.9211 18.8123 17.1406 20.5935 18.8269C22.6286 20.8266 22.9636 21.7229 24.1092 21.7229H27.1103C27.9678 21.7229 28.3977 21.3022 28.1507 20.4698C27.8786 19.6421 26.9068 18.4405 25.6183 17.0148C24.9186 16.2031 23.8691 15.3285 23.5501 14.8906C23.1054 14.3292 23.2323 14.0788 23.5501 13.5792C23.5501 13.5792 27.2086 8.51901 27.5893 6.80064H27.5905Z" fill="white"/>
      </g>
      <defs>
      <clipPath id="clip0_2190:22218">
      <rect width="27.439" height="27.439" fill="white" transform="translate(0.780273)"/>
      </clipPath>
      </defs>
    </symbol>

    <symbol id="instagram_alt" viewBox="0 0 31 30">
      <path fill-rule="evenodd" clip-rule="evenodd" d="M9.83125 1.3325C11.2975 1.265 11.765 1.25 15.5 1.25C19.235 1.25 19.7025 1.26625 21.1675 1.3325C22.6325 1.39875 23.6325 1.6325 24.5075 1.97125C25.4237 2.3175 26.255 2.85875 26.9425 3.55875C27.6425 4.245 28.1825 5.075 28.5275 5.9925C28.8675 6.8675 29.1 7.8675 29.1675 9.33C29.235 10.7987 29.25 11.2662 29.25 15C29.25 18.735 29.2337 19.2025 29.1675 20.6688C29.1012 22.1313 28.8675 23.1313 28.5275 24.0063C28.1825 24.9239 27.6416 25.7552 26.9425 26.4425C26.255 27.1425 25.4237 27.6825 24.5075 28.0275C23.6325 28.3675 22.6325 28.6 21.17 28.6675C19.7025 28.735 19.235 28.75 15.5 28.75C11.765 28.75 11.2975 28.7337 9.83125 28.6675C8.36875 28.6012 7.36875 28.3675 6.49375 28.0275C5.57615 27.6825 4.74478 27.1416 4.0575 26.4425C3.35797 25.7558 2.81664 24.9249 2.47125 24.0075C2.1325 23.1325 1.9 22.1325 1.8325 20.67C1.765 19.2013 1.75 18.7337 1.75 15C1.75 11.265 1.76625 10.7975 1.8325 9.3325C1.89875 7.8675 2.1325 6.8675 2.47125 5.9925C2.81715 5.0751 3.3589 4.24414 4.05875 3.5575C4.74505 2.85813 5.57559 2.3168 6.4925 1.97125C7.3675 1.6325 8.3675 1.4 9.83 1.3325H9.83125ZM21.0562 3.8075C19.6062 3.74125 19.1712 3.7275 15.5 3.7275C11.8287 3.7275 11.3938 3.74125 9.94375 3.8075C8.6025 3.86875 7.875 4.0925 7.39 4.28125C6.74875 4.53125 6.29 4.8275 5.80875 5.30875C5.35256 5.75256 5.00148 6.29285 4.78125 6.89C4.5925 7.375 4.36875 8.1025 4.3075 9.44375C4.24125 10.8938 4.2275 11.3287 4.2275 15C4.2275 18.6712 4.24125 19.1062 4.3075 20.5562C4.36875 21.8975 4.5925 22.625 4.78125 23.11C5.00125 23.7063 5.3525 24.2475 5.80875 24.6912C6.2525 25.1475 6.79375 25.4988 7.39 25.7188C7.875 25.9075 8.6025 26.1313 9.94375 26.1925C11.3938 26.2588 11.8275 26.2725 15.5 26.2725C19.1725 26.2725 19.6062 26.2588 21.0562 26.1925C22.3975 26.1313 23.125 25.9075 23.61 25.7188C24.2513 25.4688 24.71 25.1725 25.1912 24.6912C25.6475 24.2475 25.9988 23.7063 26.2188 23.11C26.4075 22.625 26.6313 21.8975 26.6925 20.5562C26.7588 19.1062 26.7725 18.6712 26.7725 15C26.7725 11.3287 26.7588 10.8938 26.6925 9.44375C26.6313 8.1025 26.4075 7.375 26.2188 6.89C25.9688 6.24875 25.6725 5.79 25.1912 5.30875C24.7474 4.85259 24.2071 4.50151 23.61 4.28125C23.125 4.0925 22.3975 3.86875 21.0562 3.8075ZM13.7438 19.2388C14.7246 19.647 15.8167 19.7021 16.8337 19.3947C17.8506 19.0872 18.7292 18.4361 19.3195 17.5528C19.9098 16.6695 20.1751 15.6086 20.0701 14.5514C19.965 13.4942 19.4963 12.5062 18.7437 11.7562C18.264 11.2768 17.684 10.9098 17.0454 10.6814C16.4068 10.4531 15.7255 10.3692 15.0506 10.4358C14.3757 10.5023 13.7239 10.7177 13.1423 11.0664C12.5606 11.4151 12.0634 11.8884 11.6866 12.4523C11.3098 13.0162 11.0627 13.6566 10.9631 14.3275C10.8636 14.9983 10.9139 15.6829 11.1107 16.3319C11.3074 16.9809 11.6456 17.5783 12.1009 18.0809C12.5562 18.5835 13.1173 18.979 13.7438 19.2388ZM10.5025 10.0025C11.1588 9.34622 11.9379 8.82563 12.7954 8.47045C13.6528 8.11527 14.5719 7.93247 15.5 7.93247C16.4281 7.93247 17.3472 8.11527 18.2046 8.47045C19.0621 8.82563 19.8412 9.34622 20.4975 10.0025C21.1538 10.6588 21.6744 11.4379 22.0295 12.2954C22.3847 13.1528 22.5675 14.0719 22.5675 15C22.5675 15.9281 22.3847 16.8472 22.0295 17.7046C21.6744 18.5621 21.1538 19.3412 20.4975 19.9975C19.1721 21.3229 17.3744 22.0675 15.5 22.0675C13.6256 22.0675 11.8279 21.3229 10.5025 19.9975C9.17708 18.6721 8.43247 16.8744 8.43247 15C8.43247 13.1256 9.17708 11.3279 10.5025 10.0025ZM24.135 8.985C24.2976 8.83159 24.4278 8.6471 24.5179 8.44247C24.6079 8.23783 24.656 8.01721 24.6593 7.79366C24.6625 7.57011 24.6209 7.34818 24.5369 7.14101C24.4528 6.93384 24.328 6.74564 24.17 6.58755C24.0119 6.42946 23.8237 6.3047 23.6165 6.22065C23.4093 6.1366 23.1874 6.09497 22.9638 6.09823C22.7403 6.10149 22.5197 6.14957 22.315 6.23962C22.1104 6.32967 21.9259 6.45987 21.7725 6.6225C21.4741 6.93879 21.3108 7.3589 21.3171 7.79366C21.3235 8.22842 21.499 8.6436 21.8064 8.95105C22.1139 9.25851 22.5291 9.43404 22.9638 9.44037C23.3986 9.44671 23.8187 9.28336 24.135 8.985Z" fill="white"/>
    </symbol>





  </defs>
</svg>
